<svg width="299" height="296" viewBox="0 0 299 296" fill="none" xmlns="http://www.w3.org/2000/svg">
<path fill-rule="evenodd" clip-rule="evenodd" d="M143.276 237.432C183.007 239.282 218.951 211.485 226.241 171.275C227.255 165.683 227.644 159.578 227.487 153.104C224.215 154.711 220.418 155.324 216.555 154.624C206.951 152.882 200.576 143.685 202.317 134.081C202.494 133.105 202.748 132.162 203.072 131.258C199.999 132.571 196.52 133.03 192.986 132.389C183.382 130.648 177.007 121.45 178.749 111.846C180.123 104.267 186.14 98.6989 193.336 97.5435C192.345 94.74 192.048 91.6479 192.617 88.5124C194.018 80.7837 200.247 75.1466 207.632 74.1469C197.781 51.1368 185.325 29.6913 172.761 14.3796C133.387 34.6222 75.5492 98.7102 67.6075 142.516C60.3177 182.726 84.216 221.372 122.068 233.587L115.635 269.07C114.574 274.926 118.46 280.535 124.317 281.596C130.173 282.658 135.781 278.771 136.843 272.915L143.276 237.432Z" fill="white"/>
</svg>
